<svg xmlns="http://www.w3.org/2000/svg" width="100" height="140" viewBox="0 0 100 140">
  <defs>
    <!-- 자금 (자주색+금색) 프레임 그라데이션 -->
    <linearGradient id="purpleGoldUR" x1="0%" y1="0%" x2="100%" y2="100%">
      <stop offset="0%" style="stop-color:#4a0080"/>
      <stop offset="15%" style="stop-color:#8b008b"/>
      <stop offset="30%" style="stop-color:#daa520"/>
      <stop offset="45%" style="stop-color:#ffd700"/>
      <stop offset="55%" style="stop-color:#daa520"/>
      <stop offset="70%" style="stop-color:#8b008b"/>
      <stop offset="85%" style="stop-color:#ffd700"/>
      <stop offset="100%" style="stop-color:#4a0080"/>
    </linearGradient>
    <!-- 애니메이션용 발광 그라데이션 -->
    <linearGradient id="glowAnimUR" x1="0%" y1="0%" x2="100%" y2="100%">
      <stop offset="0%" style="stop-color:#ff00ff;stop-opacity:0.6"/>
      <stop offset="50%" style="stop-color:#ffd700;stop-opacity:0.8"/>
      <stop offset="100%" style="stop-color:#ff00ff;stop-opacity:0.6"/>
    </linearGradient>
    <!-- 배경 -->
    <linearGradient id="bgUR" x1="0%" y1="0%" x2="0%" y2="100%">
      <stop offset="0%" style="stop-color:#1a0020"/>
      <stop offset="50%" style="stop-color:#0f0015"/>
      <stop offset="100%" style="stop-color:#1a0020"/>
    </linearGradient>
    <!-- 봉황 문양 패턴 -->
    <pattern id="phoenixUR" x="0" y="0" width="60" height="40" patternUnits="userSpaceOnUse">
      <!-- 봉황 날개 -->
      <path d="M10,25 Q20,15 35,20 Q50,25 55,15" stroke="rgba(255,215,0,0.15)" stroke-width="1" fill="none"/>
      <path d="M15,28 Q25,35 40,30" stroke="rgba(139,0,139,0.12)" stroke-width="1" fill="none"/>
      <!-- 봉황 깃털 -->
      <ellipse cx="35" cy="20" rx="4" ry="3" fill="rgba(255,215,0,0.08)"/>
      <ellipse cx="20" cy="22" rx="3" ry="2" fill="rgba(139,0,139,0.08)"/>
      <path d="M40,18 Q45,12 50,15" stroke="rgba(255,0,255,0.1)" stroke-width="0.5" fill="none"/>
    </pattern>
    <filter id="urGlow">
      <feGaussianBlur stdDeviation="3" result="blur"/>
      <feMerge>
        <feMergeNode in="blur"/>
        <feMergeNode in="SourceGraphic"/>
      </feMerge>
    </filter>
    <filter id="innerPurple">
      <feDropShadow dx="0" dy="0" stdDeviation="5" flood-color="#ff00ff" flood-opacity="0.4"/>
    </filter>
    <filter id="sparkle">
      <feGaussianBlur stdDeviation="1" result="blur"/>
      <feColorMatrix type="matrix" values="1 0 0 0 0 0 1 0 0 0 0 0 1 0 0 0 0 0 2 0"/>
      <feMerge>
        <feMergeNode in="blur"/>
        <feMergeNode in="SourceGraphic"/>
      </feMerge>
    </filter>
  </defs>
  
  <!-- 외부 발광 (이중) -->
  <rect x="-2" y="-2" width="104" height="144" rx="12" ry="12" fill="none" stroke="rgba(255,0,255,0.2)" stroke-width="4"/>
  <rect x="1" y="1" width="98" height="138" rx="10" ry="10" fill="none" stroke="url(#glowAnimUR)" stroke-width="3" filter="url(#urGlow)"/>
  
  <!-- 프레임 그림자 -->
  <rect x="4" y="4" width="96" height="136" rx="6" ry="6" fill="rgba(0,0,0,0.6)"/>
  
  <!-- 자금 프레임 -->
  <rect x="0" y="0" width="100" height="140" rx="8" ry="8" fill="url(#purpleGoldUR)" filter="url(#urGlow)"/>
  
  <!-- 내부 배경 -->
  <rect x="5" y="5" width="90" height="130" rx="5" ry="5" fill="url(#bgUR)" filter="url(#innerPurple)"/>
  <rect x="5" y="5" width="90" height="130" rx="5" ry="5" fill="url(#phoenixUR)"/>
  
  <!-- 다중 테두리 -->
  <rect x="7" y="7" width="86" height="126" rx="4" ry="4" fill="none" stroke="rgba(255,215,0,0.6)" stroke-width="1.5"/>
  <rect x="9" y="9" width="82" height="122" rx="3" ry="3" fill="none" stroke="rgba(139,0,139,0.4)" stroke-width="1"/>
  <rect x="11" y="11" width="78" height="118" rx="2" ry="2" fill="none" stroke="rgba(255,215,0,0.2)" stroke-width="1"/>
  
  <!-- 봉황 머리 장식 - 좌상 -->
  <g transform="translate(8, 8)" fill="url(#purpleGoldUR)" filter="url(#urGlow)">
    <!-- 봉황 머리 -->
    <ellipse cx="12" cy="12" rx="8" ry="6"/>
    <!-- 관 -->
    <path d="M8,6 Q12,0 16,6" stroke="url(#purpleGoldUR)" stroke-width="2" fill="none"/>
    <circle cx="12" cy="3" r="2" fill="#ffd700"/>
    <!-- 부리 -->
    <path d="M20,12 Q25,10 28,14" stroke="url(#purpleGoldUR)" stroke-width="2" fill="none"/>
    <!-- 눈 -->
    <circle cx="9" cy="10" r="2" fill="#1a0020"/>
    <circle cx="8" cy="9" r="0.8" fill="#ff00ff"/>
    <!-- 깃털 -->
    <path d="M5,15 Q0,20 3,28" stroke="#ffd700" stroke-width="1.5" fill="none"/>
    <path d="M8,18 Q2,25 6,32" stroke="#8b008b" stroke-width="1" fill="none"/>
  </g>
  
  <!-- 봉황 머리 장식 - 우상 -->
  <g transform="translate(92, 8) scale(-1, 1)" fill="url(#purpleGoldUR)" filter="url(#urGlow)">
    <ellipse cx="12" cy="12" rx="8" ry="6"/>
    <path d="M8,6 Q12,0 16,6" stroke="url(#purpleGoldUR)" stroke-width="2" fill="none"/>
    <circle cx="12" cy="3" r="2" fill="#ffd700"/>
    <path d="M20,12 Q25,10 28,14" stroke="url(#purpleGoldUR)" stroke-width="2" fill="none"/>
    <circle cx="9" cy="10" r="2" fill="#1a0020"/>
    <circle cx="8" cy="9" r="0.8" fill="#ff00ff"/>
    <path d="M5,15 Q0,20 3,28" stroke="#ffd700" stroke-width="1.5" fill="none"/>
    <path d="M8,18 Q2,25 6,32" stroke="#8b008b" stroke-width="1" fill="none"/>
  </g>
  
  <!-- 봉황 꼬리 장식 - 하단 -->
  <g transform="translate(50, 125)" fill="none" filter="url(#urGlow)">
    <path d="M-30,0 Q-20,8 -10,5 Q0,2 10,5 Q20,8 30,0" stroke="#ffd700" stroke-width="2"/>
    <path d="M-25,5 Q-15,12 0,10 Q15,12 25,5" stroke="#8b008b" stroke-width="1.5"/>
    <path d="M-20,10 Q0,18 20,10" stroke="rgba(255,0,255,0.5)" stroke-width="1"/>
  </g>
  
  <!-- 반짝임 효과 -->
  <g filter="url(#sparkle)">
    <circle cx="15" cy="25" r="1.5" fill="#ffffff"/>
    <circle cx="85" cy="35" r="1" fill="#ffd700"/>
    <circle cx="20" cy="115" r="1.2" fill="#ff00ff"/>
    <circle cx="80" cy="105" r="1" fill="#ffffff"/>
    <circle cx="50" cy="15" r="1.5" fill="#ffd700"/>
  </g>
  
  <!-- 상단 중앙 보석 -->
  <g transform="translate(50, 6)" filter="url(#urGlow)">
    <ellipse cx="0" cy="0" rx="6" ry="4" fill="url(#purpleGoldUR)"/>
    <ellipse cx="0" cy="0" rx="3" ry="2" fill="#ff00ff"/>
    <ellipse cx="-1" cy="-1" rx="1" ry="0.6" fill="rgba(255,255,255,0.6)"/>
  </g>
  
  <!-- 등급 표시 영역 -->
  <rect x="25" y="121" width="50" height="14" rx="4" ry="4" fill="rgba(139,0,139,0.3)" stroke="url(#purpleGoldUR)" stroke-width="1.5"/>
</svg>
