<svg xmlns="http://www.w3.org/2000/svg" width="100" height="40" viewBox="0 0 100 40">
  <defs>
    <linearGradient id="cloudGold" x1="0%" y1="0%" x2="100%" y2="0%">
      <stop offset="0%" style="stop-color:#daa520;stop-opacity:0.8"/>
      <stop offset="50%" style="stop-color:#ffd700;stop-opacity:1"/>
      <stop offset="100%" style="stop-color:#daa520;stop-opacity:0.8"/>
    </linearGradient>
  </defs>
  <!-- 중국 전통 구름 문양 (祥云) -->
  <g fill="none" stroke="url(#cloudGold)" stroke-width="2">
    <!-- 왼쪽 구름 소용돌이 -->
    <path d="M10,25 Q5,20 10,15 Q15,10 20,15 Q25,20 20,25 Q15,30 10,25"/>
    <path d="M18,20 Q20,18 25,20 Q30,22 32,18"/>
    <!-- 중앙 구름 -->
    <path d="M35,22 Q40,15 50,15 Q60,15 65,22"/>
    <path d="M42,20 Q45,12 55,12 Q62,12 58,20"/>
    <circle cx="50" cy="18" r="3" fill="url(#cloudGold)"/>
    <!-- 오른쪽 구름 소용돌이 -->
    <path d="M68,18 Q72,22 78,18 Q84,14 88,20 Q92,26 88,28 Q82,30 78,26"/>
    <path d="M75,22 Q80,20 82,24"/>
  </g>
  <!-- 소용돌이 장식 -->
  <g fill="url(#cloudGold)">
    <circle cx="12" cy="20" r="2"/>
    <circle cx="86" cy="22" r="2"/>
  </g>
</svg>
