<svg xmlns="http://www.w3.org/2000/svg" width="200" height="60" viewBox="0 0 200 60">
  <defs>
    <!-- 눌린 황금 그라데이션 -->
    <linearGradient id="goldPressed" x1="0%" y1="0%" x2="0%" y2="100%">
      <stop offset="0%" style="stop-color:#a07818"/>
      <stop offset="30%" style="stop-color:#8b6914"/>
      <stop offset="50%" style="stop-color:#705010"/>
      <stop offset="70%" style="stop-color:#5c4a1f"/>
      <stop offset="100%" style="stop-color:#3d320d"/>
    </linearGradient>
    <linearGradient id="goldOuterPressed" x1="0%" y1="0%" x2="100%" y2="100%">
      <stop offset="0%" style="stop-color:#3d320d"/>
      <stop offset="50%" style="stop-color:#5c4a1f"/>
      <stop offset="100%" style="stop-color:#3d320d"/>
    </linearGradient>
    <pattern id="dragonPatternDark" x="0" y="0" width="60" height="30" patternUnits="userSpaceOnUse">
      <path d="M10,15 Q15,8 25,10 Q35,12 40,8 Q45,4 50,10" stroke="rgba(60,40,10,0.4)" stroke-width="1" fill="none"/>
    </pattern>
    <filter id="innerShadow">
      <feOffset dx="0" dy="2"/>
      <feGaussianBlur stdDeviation="2"/>
      <feComposite operator="out" in="SourceGraphic"/>
      <feColorMatrix type="matrix" values="0 0 0 0 0 0 0 0 0 0 0 0 0 0 0 0 0 0 0.5 0"/>
      <feBlend mode="normal" in2="SourceGraphic"/>
    </filter>
  </defs>
  
  <!-- 외곽 프레임 -->
  <rect x="5" y="5" width="190" height="50" rx="7" ry="7" fill="url(#goldOuterPressed)"/>
  
  <!-- 메인 황금 버튼 (눌린 상태) -->
  <rect x="9" y="9" width="182" height="42" rx="4" ry="4" fill="url(#goldPressed)" filter="url(#innerShadow)"/>
  <rect x="9" y="9" width="182" height="42" rx="4" ry="4" fill="url(#dragonPatternDark)"/>
  
  <!-- 내부 테두리 -->
  <rect x="12" y="12" width="176" height="36" rx="3" ry="3" fill="none" stroke="rgba(90,70,30,0.5)" stroke-width="1"/>
  
  <!-- 모서리 장식 -->
  <g stroke="rgba(160,120,24,0.5)" stroke-width="1.5" fill="none">
    <path d="M10,20 L10,10 L20,10"/>
    <path d="M180,10 L190,10 L190,20"/>
    <path d="M10,40 L10,50 L20,50"/>
    <path d="M180,50 L190,50 L190,40"/>
  </g>
</svg>
