<svg xmlns="http://www.w3.org/2000/svg" width="200" height="60" viewBox="0 0 200 60">
  <defs>
    <!-- 눌린 상태 - 더 어두운 비단 -->
    <linearGradient id="silkRedPressed" x1="0%" y1="0%" x2="0%" y2="100%">
      <stop offset="0%" style="stop-color:#6b0000"/>
      <stop offset="15%" style="stop-color:#5a0000"/>
      <stop offset="50%" style="stop-color:#4a0000"/>
      <stop offset="85%" style="stop-color:#3a0000"/>
      <stop offset="100%" style="stop-color:#2a0000"/>
    </linearGradient>
    <!-- 눌린 상태 광택 (반전) -->
    <linearGradient id="sheenPressed" x1="0%" y1="100%" x2="100%" y2="0%">
      <stop offset="0%" style="stop-color:rgba(255,255,255,0.15)"/>
      <stop offset="50%" style="stop-color:rgba(255,255,255,0)"/>
      <stop offset="100%" style="stop-color:rgba(0,0,0,0.1)"/>
    </linearGradient>
    <!-- 금장 테두리 (약간 어둡게) -->
    <linearGradient id="goldFramePressed" x1="0%" y1="0%" x2="100%" y2="100%">
      <stop offset="0%" style="stop-color:#705010"/>
      <stop offset="25%" style="stop-color:#a07818"/>
      <stop offset="50%" style="stop-color:#c9a020"/>
      <stop offset="75%" style="stop-color:#a07818"/>
      <stop offset="100%" style="stop-color:#705010"/>
    </linearGradient>
    <filter id="innerShadow">
      <feOffset dx="0" dy="2"/>
      <feGaussianBlur stdDeviation="2"/>
      <feComposite operator="out" in="SourceGraphic"/>
      <feColorMatrix type="matrix" values="0 0 0 0 0 0 0 0 0 0 0 0 0 0 0 0 0 0 0.5 0"/>
      <feBlend mode="normal" in2="SourceGraphic"/>
    </filter>
    <pattern id="fabricTex" x="0" y="0" width="4" height="4" patternUnits="userSpaceOnUse">
      <rect x="0" y="0" width="2" height="2" fill="rgba(0,0,0,0.08)"/>
      <rect x="2" y="2" width="2" height="2" fill="rgba(0,0,0,0.08)"/>
    </pattern>
  </defs>
  
  <!-- 눌린 상태 - 그림자 없음 (버튼이 들어감) -->
  
  <!-- 금장 외곽 프레임 -->
  <rect x="5" y="5" width="190" height="50" rx="7" ry="7" fill="url(#goldFramePressed)"/>
  
  <!-- 메인 비단 버튼 (눌린 상태) -->
  <rect x="9" y="9" width="182" height="42" rx="4" ry="4" fill="url(#silkRedPressed)" filter="url(#innerShadow)"/>
  <rect x="9" y="9" width="182" height="42" rx="4" ry="4" fill="url(#fabricTex)"/>
  
  <!-- 눌린 상태 광택 -->
  <rect x="9" y="30" width="182" height="18" rx="4" ry="4" fill="url(#sheenPressed)"/>
  
  <!-- 내부 테두리 (더 어둡게) -->
  <rect x="12" y="12" width="176" height="36" rx="3" ry="3" fill="none" stroke="rgba(139,69,19,0.4)" stroke-width="1"/>
  
  <!-- 모서리 장식 - 좌상 -->
  <path d="M12,20 L12,12 L20,12" fill="none" stroke="url(#goldFramePressed)" stroke-width="2" stroke-linecap="round"/>
  <!-- 모서리 장식 - 우상 -->
  <path d="M180,12 L188,12 L188,20" fill="none" stroke="url(#goldFramePressed)" stroke-width="2" stroke-linecap="round"/>
  <!-- 모서리 장식 - 좌하 -->
  <path d="M12,40 L12,48 L20,48" fill="none" stroke="url(#goldFramePressed)" stroke-width="2" stroke-linecap="round"/>
  <!-- 모서리 장식 - 우하 -->
  <path d="M180,48 L188,48 L188,40" fill="none" stroke="url(#goldFramePressed)" stroke-width="2" stroke-linecap="round"/>
</svg>
