<svg xmlns="http://www.w3.org/2000/svg" width="200" height="60" viewBox="0 0 200 60">
  <defs>
    <!-- 눌린 검은 옥 -->
    <linearGradient id="blackJadePressed" x1="0%" y1="0%" x2="0%" y2="100%">
      <stop offset="0%" style="stop-color:#1a1a1a"/>
      <stop offset="50%" style="stop-color:#0a0a0a"/>
      <stop offset="100%" style="stop-color:#000000"/>
    </linearGradient>
    <linearGradient id="silverFramePressed" x1="0%" y1="0%" x2="100%" y2="100%">
      <stop offset="0%" style="stop-color:#3a3a3a"/>
      <stop offset="50%" style="stop-color:#6a6a6a"/>
      <stop offset="100%" style="stop-color:#3a3a3a"/>
    </linearGradient>
    <pattern id="jadePatternDark" x="0" y="0" width="40" height="40" patternUnits="userSpaceOnUse">
      <circle cx="20" cy="20" r="15" fill="none" stroke="rgba(50,50,50,0.15)" stroke-width="0.5"/>
      <circle cx="20" cy="20" r="10" fill="none" stroke="rgba(50,50,50,0.1)" stroke-width="0.5"/>
    </pattern>
    <filter id="innerShadow">
      <feOffset dx="0" dy="2"/>
      <feGaussianBlur stdDeviation="2"/>
      <feComposite operator="out" in="SourceGraphic"/>
      <feColorMatrix type="matrix" values="0 0 0 0 0 0 0 0 0 0 0 0 0 0 0 0 0 0 0.6 0"/>
      <feBlend mode="normal" in2="SourceGraphic"/>
    </filter>
  </defs>
  
  <!-- 은색 외곽 프레임 -->
  <rect x="5" y="5" width="190" height="50" rx="7" ry="7" fill="url(#silverFramePressed)"/>
  
  <!-- 메인 검은 옥 버튼 (눌린 상태) -->
  <rect x="9" y="9" width="182" height="42" rx="4" ry="4" fill="url(#blackJadePressed)" filter="url(#innerShadow)"/>
  <rect x="9" y="9" width="182" height="42" rx="4" ry="4" fill="url(#jadePatternDark)"/>
  
  <!-- 내부 테두리 -->
  <rect x="12" y="12" width="176" height="36" rx="3" ry="3" fill="none" stroke="rgba(100,100,100,0.3)" stroke-width="1"/>
  
  <!-- 모서리 장식 -->
  <g stroke="url(#silverFramePressed)" stroke-width="1.5" fill="none">
    <path d="M12,20 L12,12 L20,12"/>
    <path d="M180,12 L188,12 L188,20"/>
    <path d="M12,40 L12,48 L20,48"/>
    <path d="M180,48 L188,48 L188,40"/>
  </g>
</svg>
